<?xml version="1.0" standalone="no"?>
<!DOCTYPE svg PUBLIC "-//W3C//DTD SVG 20010904//EN"
 "http://www.w3.org/TR/2001/REC-SVG-20010904/DTD/svg10.dtd">
<svg version="1.0" xmlns="http://www.w3.org/2000/svg"
 width="600.000000pt" height="600.000000pt" viewBox="0 0 600.000000 600.000000"
 preserveAspectRatio="xMidYMid meet">

<g transform="translate(0.000000,600.000000) scale(0.100000,-0.100000)"
fill="#000000" stroke="none">
<path d="M3752 4631 c-18 -12 -45 -21 -61 -21 -16 0 -31 -6 -34 -14 -3 -8 -23
-20 -44 -27 -21 -6 -48 -24 -60 -38 -12 -14 -25 -22 -29 -18 -4 3 -20 -5 -36
-18 -16 -14 -36 -25 -44 -25 -8 0 -14 -4 -14 -10 0 -5 -5 -10 -10 -10 -6 0
-27 -16 -47 -35 -20 -19 -42 -35 -48 -35 -7 0 -16 -11 -19 -24 -7 -27 -46 -33
-46 -8 0 7 -6 12 -12 9 -7 -2 -22 -1 -34 3 -13 6 -28 2 -44 -10 -20 -15 -22
-21 -11 -33 9 -12 10 -21 1 -37 -6 -12 -9 -27 -7 -34 3 -7 -10 -37 -29 -67
-18 -30 -34 -60 -34 -66 0 -7 -7 -13 -15 -13 -8 0 -15 -7 -15 -15 0 -8 -6 -15
-13 -15 -13 0 -67 -56 -67 -71 0 -4 -10 -18 -22 -30 -15 -14 -19 -23 -11 -26
7 -2 9 -11 6 -19 -3 -9 1 -14 13 -14 11 0 28 -7 38 -15 25 -19 36 -19 36 0 0
18 47 72 55 63 8 -8 9 -150 1 -174 -4 -14 -1 -27 9 -37 13 -13 13 -19 1 -42
-9 -18 -11 -36 -6 -55 4 -15 4 -49 -1 -75 -9 -50 2 -118 22 -130 12 -8 9 -115
-4 -132 -6 -9 -4 -15 7 -19 19 -7 22 -34 4 -34 -8 0 -9 -3 -3 -8 16 -11 35
-50 35 -71 0 -11 13 -25 33 -35 27 -13 29 -16 10 -16 -30 0 -29 -7 7 -64 25
-39 34 -46 51 -41 13 5 25 2 29 -6 15 -23 40 9 40 52 l0 38 103 3 c97 3 102 4
105 26 2 12 10 22 18 22 8 0 12 4 9 10 -3 5 5 15 19 22 14 6 26 17 26 24 0 7
14 26 31 43 22 22 29 37 24 51 -4 14 2 30 19 51 14 17 26 27 26 22 0 -4 12 11
26 35 14 23 23 46 19 51 -3 5 -1 12 5 16 5 3 10 13 10 22 0 9 12 26 26 39 14
13 22 29 19 34 -4 6 1 24 9 42 9 17 16 36 16 43 0 6 13 38 30 70 24 47 27 61
18 73 -10 11 -8 18 8 31 12 9 20 24 18 34 -1 9 2 17 7 17 5 0 9 7 9 15 0 9 7
27 16 40 13 20 14 28 4 40 -13 15 -5 39 11 30 5 -4 9 3 9 14 0 12 5 21 11 21
6 0 9 6 6 13 -3 7 1 24 8 37 9 17 10 30 3 43 -7 13 -5 25 7 44 12 18 15 35 10
60 -3 20 -2 33 3 29 5 -3 9 21 9 52 1 31 1 79 2 106 0 27 -3 54 -8 60 -4 6
-11 23 -14 37 -8 33 -46 81 -58 73 -5 -3 -17 4 -27 15 -27 32 -127 39 -170 12z
m90 -123 c34 3 61 -34 63 -88 1 -21 8 -60 15 -86 12 -42 12 -48 -3 -59 -9 -7
-17 -19 -17 -28 0 -8 -4 -17 -10 -19 -5 -1 -10 -19 -11 -38 -2 -19 -7 -41 -12
-47 -5 -7 -11 -27 -13 -45 -1 -18 -3 -34 -3 -35 -1 -2 0 -4 1 -5 1 -2 -4 -14
-11 -27 -7 -13 -14 -35 -16 -48 -1 -14 -8 -29 -15 -33 -7 -4 -10 -17 -7 -29 3
-11 -1 -25 -9 -32 -8 -7 -11 -21 -8 -34 4 -17 0 -24 -17 -28 -14 -4 -20 -11
-16 -21 4 -9 1 -16 -4 -16 -7 0 -9 -11 -7 -25 3 -14 1 -25 -3 -25 -5 0 -9 -7
-9 -15 0 -8 -9 -23 -19 -32 -11 -9 -18 -20 -15 -25 3 -5 0 -16 -7 -24 -10 -13
-10 -17 2 -25 8 -5 9 -9 3 -9 -5 0 -16 -16 -24 -35 -7 -19 -19 -36 -26 -39 -7
-3 -15 -18 -19 -35 -4 -17 -10 -31 -14 -31 -9 0 -37 -90 -33 -103 1 -5 -2 -6
-7 -3 -5 4 -12 2 -16 -4 -4 -6 -11 -7 -17 -4 -7 4 -8 2 -4 -4 4 -6 -3 -21 -14
-32 -12 -12 -19 -28 -16 -37 5 -11 2 -13 -9 -9 -10 3 -13 2 -10 -4 4 -6 -8
-23 -26 -38 -17 -15 -43 -38 -58 -51 -50 -45 -70 -55 -86 -41 -8 7 -15 18 -15
25 0 8 -5 15 -10 17 -6 2 -13 27 -17 56 -6 50 -16 66 -26 40 -3 -7 -4 11 -2
40 1 37 -2 52 -11 52 -10 0 -11 6 -5 22 4 13 5 35 0 51 -5 19 -4 30 4 33 15 6
15 62 -1 91 -15 27 -16 70 -2 78 7 4 8 11 1 18 -8 11 -8 39 1 125 2 17 0 32
-4 32 -5 0 -4 8 1 18 9 17 17 116 11 135 -5 16 -6 73 -1 82 3 6 6 15 6 20 2
26 28 67 67 108 24 24 53 56 65 71 13 14 30 26 39 26 18 0 74 53 74 69 0 6 8
11 18 11 10 0 32 16 51 35 18 19 44 38 57 41 13 3 24 10 24 15 0 5 8 9 18 9 9
0 26 7 36 15 11 8 30 15 43 15 13 0 26 7 29 15 5 11 13 13 28 9 11 -4 33 -7
48 -6z m-650 -1250 c-7 -7 -12 -8 -12 -2 0 6 3 14 7 17 3 4 9 5 12 2 2 -3 -1
-11 -7 -17z"/>
<path d="M1377 4573 c-4 -3 -7 -14 -7 -24 0 -11 -9 -19 -22 -21 -16 -2 -24
-11 -26 -28 -2 -14 -13 -35 -23 -46 -11 -12 -19 -25 -18 -30 2 -10 -3 -27 -37
-105 -27 -64 -30 -85 -11 -92 9 -4 9 -8 -2 -15 -7 -5 -16 -31 -18 -58 -3 -27
-10 -55 -16 -62 -6 -8 -10 -27 -9 -43 1 -16 -2 -38 -8 -49 -7 -13 -7 -20 -1
-20 16 0 0 -119 -19 -145 -12 -17 -21 -105 -10 -105 11 0 10 -50 -2 -66 -4 -6
-7 -24 -7 -40 -1 -16 -2 -47 -4 -69 -2 -22 0 -51 5 -65 7 -18 5 -27 -7 -36
-14 -11 -14 -13 0 -27 20 -21 19 -38 -2 -30 -12 5 -14 3 -8 -7 10 -16 13 -230
3 -230 -3 0 -1 -11 5 -24 6 -12 18 -22 27 -21 8 1 10 0 4 -2 -15 -5 -25 -43
-12 -43 5 0 7 -4 3 -9 -3 -5 -2 -12 3 -15 11 -7 2 -69 -10 -77 -6 -4 -3 -17 7
-32 9 -15 13 -32 9 -39 -10 -17 -6 -68 7 -84 6 -7 8 -22 4 -34 -4 -12 -1 -27
5 -35 6 -8 9 -18 6 -23 -3 -5 4 -16 15 -26 20 -16 22 -16 47 0 23 15 25 15 14
1 -8 -9 -22 -19 -33 -22 -23 -8 -25 -51 -4 -79 10 -14 15 -15 15 -6 0 10 3 11
11 3 14 -14 2 -36 -13 -27 -8 5 -9 1 -5 -10 4 -10 7 -31 7 -47 0 -19 5 -29 15
-29 8 0 15 -4 15 -10 0 -5 19 -1 42 9 31 13 42 23 43 42 2 23 -42 126 -66 155
-14 17 2 19 20 2 12 -11 13 -9 6 7 -4 11 -7 32 -6 48 1 19 -3 27 -15 27 -14 0
-16 7 -11 37 4 22 2 42 -5 51 -9 10 -9 15 1 21 10 7 10 13 2 29 -6 11 -8 28
-5 37 4 10 -1 22 -15 32 -17 12 -20 18 -10 29 6 8 9 14 5 14 -3 0 -1 11 4 24
6 17 5 29 -5 42 -11 16 -11 23 2 48 10 20 12 35 6 50 -5 11 -6 43 -3 69 3 27
3 50 -2 53 -8 5 -3 85 8 122 4 14 2 22 -6 22 -8 0 -9 6 -5 18 4 9 8 54 9 99 1
45 5 85 9 89 4 4 2 13 -4 21 -9 9 -8 17 0 27 6 7 9 20 6 29 -4 8 0 30 8 50 8
19 11 39 7 43 -14 15 -15 58 -2 81 7 12 12 31 12 42 0 12 3 21 8 21 4 0 7 20
6 45 0 25 3 45 7 45 4 0 4 13 -1 30 -6 21 -5 34 4 43 8 7 17 32 21 55 4 23 11
45 16 48 6 3 8 18 4 33 -3 15 1 42 9 61 8 19 17 56 21 82 4 26 11 46 15 43 12
-7 27 16 35 53 4 21 3 32 -5 32 -6 0 -10 8 -8 18 2 11 -3 17 -17 17 -11 0 -23
3 -26 8 -3 4 -8 4 -12 0z m-150 -1469 c-3 -3 -12 -4 -19 -1 -8 3 -5 6 6 6 11
1 17 -2 13 -5z m83 -484 c0 -5 -4 -10 -10 -10 -5 0 -10 5 -10 10 0 6 5 10 10
10 6 0 10 -4 10 -10z"/>
<path d="M2750 4491 c0 -7 -17 -8 -43 -5 -35 5 -45 3 -50 -10 -4 -9 -15 -16
-26 -16 -11 0 -23 -5 -26 -10 -4 -6 -10 -8 -15 -5 -4 3 -10 -2 -14 -10 -3 -8
-14 -15 -24 -15 -11 0 -25 -7 -32 -15 -7 -9 -15 -14 -17 -11 -2 2 -19 -10 -36
-27 -18 -18 -45 -41 -60 -52 -15 -11 -27 -26 -27 -33 0 -7 -5 -10 -10 -7 -6 3
-13 -1 -16 -9 -3 -8 -14 -18 -24 -21 -10 -3 -23 -18 -28 -33 -5 -15 -21 -39
-35 -52 -15 -14 -27 -30 -27 -37 0 -7 -9 -17 -20 -23 -20 -10 -45 -56 -42 -72
1 -5 -2 -8 -8 -8 -5 0 -7 -7 -4 -15 4 -9 0 -15 -10 -15 -9 0 -16 -5 -16 -11 0
-6 -14 -29 -31 -50 -19 -25 -29 -47 -26 -59 3 -10 0 -21 -7 -23 -6 -3 -12 8
-13 24 -1 16 2 29 6 29 9 0 21 64 26 127 1 18 8 39 14 47 17 21 31 85 20 92
-5 3 -9 30 -9 59 0 50 -2 55 -25 61 -28 7 -35 3 -39 -19 -1 -8 -9 -22 -19 -31
-9 -10 -17 -23 -17 -30 0 -6 -6 -18 -12 -24 -13 -13 -16 -31 -20 -132 -2 -38
-8 -59 -20 -68 -12 -9 -16 -24 -13 -55 4 -45 -14 -117 -29 -117 -4 0 -4 -6 2
-13 12 -14 5 -57 -9 -57 -5 0 -4 -9 3 -19 9 -15 9 -23 0 -33 -7 -9 -8 -19 -2
-28 10 -16 6 -40 -12 -77 -8 -16 -8 -37 0 -75 7 -35 7 -73 0 -116 -6 -42 -6
-68 0 -74 6 -6 6 -25 0 -50 -5 -26 -5 -45 1 -52 7 -9 7 -17 -2 -25 -9 -11 -9
-14 0 -18 8 -3 11 -14 7 -29 -3 -13 -1 -31 5 -38 7 -8 9 -25 5 -40 -4 -17 -2
-26 6 -26 6 0 8 -5 5 -10 -11 -17 5 -50 24 -50 10 0 35 -11 55 -25 47 -32 51
-31 53 5 1 17 -2 30 -7 30 -6 0 -8 25 -5 56 3 49 1 59 -18 74 -18 15 -20 21
-10 41 18 37 24 77 12 81 -19 6 -13 65 10 93 23 30 28 55 11 55 -18 0 -1 121
21 153 11 15 17 32 14 37 -4 6 1 24 9 42 9 17 16 38 16 47 0 9 7 24 15 34 7
11 11 25 9 32 -3 7 2 15 10 18 9 4 16 18 16 32 0 14 4 25 9 25 5 0 16 12 24
28 8 15 22 41 31 57 9 17 16 35 16 41 0 5 14 23 30 39 17 16 30 35 30 42 0 7
5 13 11 13 5 0 7 5 4 10 -3 6 1 13 9 16 9 3 16 12 16 19 0 13 17 29 69 65 11
8 21 20 21 26 0 6 9 14 20 17 16 4 19 11 13 37 -5 29 -4 32 15 26 14 -5 27 -1
41 13 12 12 26 21 31 21 6 0 22 11 35 24 36 36 128 76 149 64 9 -5 20 -7 25
-4 5 3 14 -1 21 -9 7 -8 19 -15 27 -15 11 0 13 -7 9 -25 -4 -14 -2 -25 4 -25
6 0 8 -36 4 -100 -4 -73 -3 -105 6 -115 11 -13 10 -14 -4 -9 -13 5 -16 -1 -16
-35 0 -23 -5 -41 -11 -41 -7 0 -9 -13 -4 -38 5 -31 2 -41 -14 -57 -12 -10 -21
-28 -21 -41 0 -13 -5 -26 -10 -29 -6 -4 -10 -12 -9 -18 1 -7 -4 -25 -11 -42
-15 -33 -18 -44 -23 -93 -2 -18 -13 -43 -23 -55 -11 -12 -18 -30 -16 -41 2
-10 -1 -23 -7 -29 -6 -6 -11 -21 -11 -33 0 -12 -7 -27 -15 -34 -8 -7 -15 -21
-15 -31 0 -10 -5 -21 -11 -24 -6 -4 -8 -14 -4 -23 3 -8 2 -18 -2 -21 -18 -13
-53 -90 -59 -129 -3 -23 -13 -47 -20 -53 -8 -6 -11 -15 -9 -20 3 -4 -4 -13
-15 -19 -22 -12 -27 -46 -7 -53 7 -3 -2 -18 -25 -41 -21 -20 -38 -41 -38 -46
0 -27 15 -40 44 -40 26 0 35 -6 45 -26 9 -21 14 -24 26 -14 8 7 13 16 10 20
-3 5 0 10 5 12 15 5 20 40 8 55 -5 7 -5 14 2 18 5 3 10 4 10 1 0 -3 10 5 23
17 13 12 21 28 19 35 -2 6 3 22 11 35 8 13 13 35 12 50 -3 27 10 38 18 15 2
-7 7 2 12 21 4 19 14 41 21 49 8 7 12 18 9 22 -3 5 0 18 7 29 9 15 9 23 0 34
-10 12 -9 16 4 21 9 4 14 9 11 12 -3 4 2 15 12 25 10 11 24 39 30 62 7 23 20
53 28 66 9 14 13 35 9 52 -3 16 -1 29 4 29 6 0 10 8 10 18 0 10 3 22 8 26 4 4
7 13 7 19 1 7 6 11 12 10 6 -1 10 3 10 10 -2 26 16 117 23 117 4 0 10 26 14
57 4 31 12 63 17 70 6 7 9 25 6 40 -3 15 1 37 10 50 8 12 13 28 11 35 -3 7 1
35 8 64 6 28 10 64 8 80 -2 16 -7 52 -10 79 -3 28 -11 53 -16 56 -6 4 -8 11
-4 17 3 6 -2 13 -11 16 -10 3 -26 24 -35 45 -10 22 -27 45 -38 51 -29 16 -100
23 -100 11z m115 -698 c-9 -37 -18 -20 -9 19 4 18 9 27 11 20 3 -7 2 -24 -2
-39z m-885 -483 c0 -5 -4 -10 -10 -10 -5 0 -10 5 -10 10 0 6 5 10 10 10 6 0
10 -4 10 -10z"/>
<path d="M3340 3066 c0 -33 16 -43 36 -23 4 4 20 7 36 7 15 0 28 5 28 10 0 6
7 10 15 10 8 0 15 7 15 15 0 12 -14 15 -65 15 l-65 0 0 -34z"/>
<path d="M4580 3042 c0 -14 -2 -14 -9 -3 -5 7 -13 11 -19 7 -6 -3 -41 -7 -79
-7 -37 -1 -72 -4 -78 -8 -10 -8 -129 -27 -220 -37 -77 -7 -169 -26 -182 -36
-6 -5 -20 -8 -30 -6 -10 1 -25 -2 -33 -7 -8 -5 -30 -12 -50 -15 -27 -5 -34
-10 -32 -25 3 -16 2 -17 -12 -6 -14 12 -16 7 -16 -43 0 -43 3 -55 12 -50 17
11 44 15 95 15 28 0 42 4 40 12 -1 7 4 11 11 10 6 -2 17 -4 24 -5 6 -2 21 14
32 36 26 47 89 94 136 101 29 4 27 3 -11 -10 -69 -22 -143 -115 -93 -115 9 0
43 7 75 15 33 9 64 13 70 10 5 -4 20 0 32 8 27 17 95 27 100 13 2 -6 11 -6 23
-2 10 5 37 10 59 12 22 2 54 6 70 10 17 3 46 7 65 8 19 1 40 5 46 9 6 3 21 4
34 2 25 -5 77 24 61 35 -6 3 -12 23 -13 43 -2 20 -7 38 -13 38 -67 9 -95 6
-95 -9z m-282 -72 c23 -10 42 -22 42 -25 0 -3 -13 1 -30 10 -37 19 -47 19 -53
-2 -3 -13 -5 -12 -6 5 0 13 -5 21 -9 18 -4 -2 -14 -1 -22 5 -29 17 34 9 78
-11z"/>
<path d="M1940 2955 c0 -8 6 -15 13 -15 9 0 13 -11 12 -32 -1 -17 5 -45 14
-62 8 -17 14 -39 13 -48 -2 -10 2 -18 8 -18 7 0 10 -6 7 -14 -3 -8 1 -20 8
-26 8 -7 13 -15 11 -19 -2 -3 2 -14 9 -24 13 -18 14 -18 23 0 6 10 14 14 19 9
4 -5 2 -11 -4 -13 -7 -3 -13 -8 -13 -13 0 -13 58 -68 65 -62 3 3 5 -2 5 -10 0
-20 14 -24 70 -24 l45 1 -1 50 c-1 28 1 43 4 35 2 -8 9 -25 13 -38 l9 -23 31
23 c17 13 36 34 41 48 11 28 37 129 38 147 0 23 -42 -1 -67 -38 -14 -21 -30
-36 -35 -33 -5 3 -12 -3 -15 -15 -3 -12 -9 -21 -14 -21 -5 0 -9 -7 -9 -15 0
-12 -10 -10 -59 7 -33 12 -58 25 -55 30 3 4 -2 8 -10 8 -10 0 -16 9 -16 24 0
14 -5 28 -11 31 -6 4 -8 13 -5 21 3 8 1 14 -5 14 -7 0 -9 10 -5 23 4 18 -2 31
-27 54 -53 51 -107 70 -107 38z"/>
<path d="M2433 2942 c-18 -24 -44 -112 -68 -230 -7 -32 -6 -33 14 -23 12 7 21
21 21 31 0 11 6 20 13 20 8 0 18 17 23 38 6 22 15 36 23 34 9 -2 12 4 8 18 -3
11 -1 20 4 20 5 0 9 -5 9 -12 0 -11 14 -3 16 10 7 42 19 72 28 72 15 1 -42 50
-58 50 -7 0 -22 -13 -33 -28z"/>
<path d="M3736 2900 c-10 -11 -23 -17 -28 -14 -5 3 -15 0 -23 -6 -10 -8 -15
-9 -15 -2 0 12 -80 -12 -90 -27 -6 -10 -117 -25 -178 -23 -38 1 -44 -3 -53
-26 -5 -14 -9 -44 -7 -65 3 -37 5 -40 35 -42 20 -2 34 3 37 12 3 8 10 12 15 9
5 -3 12 1 15 9 4 12 10 13 25 5 15 -7 23 -6 33 4 27 26 114 42 136 24 10 -9
16 -9 22 1 4 8 13 10 19 7 6 -4 11 -1 11 8 0 15 35 17 57 3 7 -5 17 1 23 13 6
11 16 20 23 20 7 0 13 18 15 45 3 41 0 46 -23 55 -31 12 -26 13 -49 -10z m-26
-55 c0 -8 -4 -15 -10 -15 -5 0 -7 7 -4 15 4 8 8 15 10 15 2 0 4 -7 4 -15z
m-30 -15 c0 -5 -2 -10 -4 -10 -3 0 -8 5 -11 10 -3 6 -1 10 4 10 6 0 11 -4 11
-10z"/>
<path d="M2376 2883 c-4 -9 -2 -21 4 -27 7 -7 10 -2 10 17 0 31 -5 34 -14 10z"/>
<path d="M3536 2865 c-3 -9 0 -15 9 -15 16 0 20 16 6 24 -5 3 -11 -1 -15 -9z"/>
<path d="M1960 2814 c0 -8 5 -12 10 -9 6 3 10 10 10 16 0 5 -4 9 -10 9 -5 0
-10 -7 -10 -16z"/>
<path d="M3209 2789 c-7 -4 -9 -14 -6 -23 5 -12 1 -14 -23 -9 -51 10 -80 -3
-80 -36 0 -21 -9 -36 -27 -50 -16 -12 -33 -25 -40 -30 -7 -7 -13 -5 -17 4 -3
10 1 15 12 15 32 0 62 29 62 61 0 29 -22 41 -35 19 -3 -5 -18 -10 -31 -10 -14
0 -33 -9 -42 -21 -14 -16 -22 -18 -42 -11 -16 6 -31 5 -42 -2 -15 -9 -11 -14
29 -43 25 -18 50 -30 54 -27 5 3 9 1 9 -5 0 -6 18 -4 48 4 27 9 61 12 81 9 30
-6 33 -5 27 14 -7 22 9 40 17 19 5 -13 67 -16 97 -4 8 3 24 7 35 9 24 4 41 61
31 102 -6 24 -10 26 -56 25 -27 -1 -54 -5 -61 -10z"/>
<path d="M2795 2670 c-3 -5 -23 -10 -43 -10 -42 0 -56 -7 -65 -32 -3 -10 -12
-15 -20 -12 -8 3 -20 -2 -27 -10 -7 -9 -16 -13 -22 -10 -5 3 -20 -2 -33 -10
-14 -9 -25 -12 -25 -6 0 5 -7 10 -15 10 -8 0 -15 -4 -15 -8 0 -4 -8 -8 -17 -9
-51 -2 -87 -12 -104 -26 -20 -18 -55 -28 -104 -30 -16 -1 -40 -8 -52 -14 -12
-7 -29 -13 -37 -13 -9 0 -16 -4 -16 -10 0 -5 -9 -10 -20 -10 -11 0 -20 -5 -20
-11 0 -7 -11 -8 -30 -4 -23 5 -30 3 -30 -8 0 -9 -14 -17 -34 -21 -19 -4 -45
-15 -59 -26 -19 -15 -27 -17 -31 -8 -3 9 -8 8 -16 -4 -7 -11 -23 -18 -44 -18
-22 0 -42 -8 -57 -24 -13 -13 -49 -29 -79 -36 -30 -8 -60 -20 -67 -28 -6 -8
-16 -12 -21 -9 -4 3 -20 -4 -33 -17 -14 -13 -41 -26 -61 -30 -20 -4 -47 -18
-60 -31 -15 -17 -34 -25 -57 -25 -19 0 -31 -3 -28 -6 4 -4 -11 -16 -33 -26
-22 -11 -40 -24 -40 -29 0 -4 -6 -6 -13 -3 -7 2 -27 -2 -43 -11 -16 -8 -25
-15 -20 -15 5 0 3 -7 -4 -15 -7 -8 -17 -12 -22 -9 -5 3 -19 -4 -30 -16 -11
-11 -31 -25 -44 -30 -13 -5 -23 -15 -22 -21 2 -6 -6 -16 -17 -22 -11 -7 -22
-15 -25 -18 -3 -3 -13 -9 -23 -12 -11 -4 -21 -16 -24 -27 -3 -11 -13 -20 -22
-20 -25 -1 -62 -36 -55 -53 3 -8 1 -18 -4 -21 -6 -3 -8 -15 -5 -27 4 -12 0
-25 -8 -30 -10 -6 0 -9 29 -11 23 -1 50 -2 60 -2 11 -1 16 6 15 17 -1 14 4 17
18 14 10 -3 17 -2 14 2 -2 5 7 18 20 29 14 12 25 29 25 37 0 9 9 15 24 15 13
0 34 11 47 24 13 13 29 22 36 19 7 -3 16 2 19 11 3 9 13 16 20 16 8 0 19 10
24 23 5 12 9 17 9 10 1 -12 30 -7 41 7 3 3 22 14 43 23 20 10 37 24 37 30 0 7
21 18 47 25 26 7 53 22 60 32 8 11 25 20 38 20 13 0 27 5 30 10 3 6 15 10 26
10 10 0 19 7 19 15 0 10 10 15 30 15 17 0 30 5 30 10 0 6 7 10 15 10 8 0 15 5
15 11 0 6 8 9 18 7 10 -3 27 1 37 8 10 8 26 14 34 14 9 0 29 7 45 15 15 8 35
15 42 15 8 0 14 4 14 8 0 9 55 33 90 39 14 2 37 12 52 23 19 14 28 16 31 7 3
-6 6 -2 6 10 1 15 6 20 19 16 10 -2 53 7 96 21 43 14 85 26 92 26 7 0 18 10
25 21 9 17 17 20 44 16 24 -4 35 -1 39 9 4 9 14 12 28 9 15 -4 30 1 43 12 11
10 27 17 37 15 9 -2 19 2 23 7 3 6 21 11 40 11 19 0 37 5 40 11 4 6 13 8 20 5
7 -2 24 1 37 8 14 7 41 16 61 20 21 4 37 11 37 15 0 5 6 9 13 8 39 -1 77 4 75
11 -1 4 3 16 9 28 10 18 8 24 -15 41 -40 29 -72 45 -72 35 0 -5 12 -27 26 -48
20 -30 22 -35 6 -21 -11 10 -26 32 -32 48 -12 29 -42 39 -55 19z m-135 -100
c0 -5 -9 -9 -20 -7 -31 5 -36 17 -7 17 15 0 27 -4 27 -10z m60 -25 c0 -5 -5
-3 -10 5 -5 8 -10 20 -10 25 0 6 5 3 10 -5 5 -8 10 -19 10 -25z m-750 -275 c0
-5 -4 -10 -10 -10 -5 0 -10 5 -10 10 0 6 5 10 10 10 6 0 10 -4 10 -10z"/>
<path d="M5760 2464 c-30 -6 -59 -8 -64 -4 -4 5 -20 4 -36 0 -15 -4 -66 -7
-114 -6 -47 1 -86 -1 -86 -5 0 -7 -27 -10 -92 -10 -16 0 -28 -4 -28 -9 0 -6
-34 -9 -79 -8 -57 1 -85 -3 -97 -13 -13 -10 -18 -11 -21 -2 -3 9 -12 9 -30 2
-15 -5 -33 -7 -41 -4 -8 3 -21 0 -28 -6 -8 -6 -25 -8 -38 -5 -14 3 -27 3 -29
-1 -3 -5 -28 -8 -56 -7 -42 0 -51 -3 -51 -17 0 -14 -6 -16 -35 -9 -19 4 -35 6
-35 4 0 -3 -9 0 -21 6 -16 9 -25 8 -39 -5 -12 -11 -28 -15 -42 -12 -13 4 -55
-2 -94 -12 -39 -10 -85 -17 -103 -15 -22 3 -30 0 -25 -8 5 -8 -2 -9 -26 -5
-20 4 -38 2 -47 -5 -8 -6 -31 -13 -51 -15 -20 -2 -47 -4 -59 -6 -13 -1 -23 -8
-23 -15 0 -7 -5 -10 -11 -6 -6 3 -16 0 -21 -7 -6 -9 -11 -10 -14 -3 -5 11 -49
10 -92 -2 -40 -11 -54 -13 -93 -17 -20 -2 -42 -8 -50 -13 -14 -9 -26 -12 -69
-17 -14 -2 -32 -7 -38 -11 -7 -4 -39 -9 -72 -10 -32 -1 -65 -8 -74 -15 -8 -7
-24 -10 -36 -6 -14 5 -20 2 -20 -10 0 -13 -7 -15 -35 -9 -23 4 -35 2 -35 -5 0
-6 -15 -11 -33 -11 -18 0 -42 -7 -53 -15 -10 -8 -29 -15 -42 -15 -13 0 -30 -6
-37 -14 -9 -8 -37 -14 -70 -15 -31 0 -61 -4 -68 -8 -7 -4 -14 -8 -17 -9 -48
-9 -175 -46 -194 -56 -13 -7 -21 -6 -26 2 -5 8 -9 7 -13 -4 -4 -9 -25 -18 -57
-22 -32 -4 -50 -11 -50 -20 0 -17 -5 -17 -47 -5 -21 6 -35 6 -39 0 -3 -6 -12
-8 -19 -5 -7 2 -16 -2 -19 -11 -4 -8 -12 -13 -19 -10 -7 3 -21 -1 -32 -9 -10
-8 -29 -14 -41 -14 -13 0 -26 -5 -29 -11 -4 -6 -13 -8 -20 -5 -7 2 -16 -2 -19
-10 -4 -10 -13 -13 -31 -8 -14 3 -25 2 -25 -4 0 -6 -23 -13 -50 -17 -27 -4
-50 -11 -50 -16 0 -5 -16 -7 -35 -5 -26 3 -37 0 -44 -12 -5 -10 -22 -19 -37
-20 -16 -1 -33 -7 -38 -12 -6 -6 -27 -10 -48 -10 -21 0 -38 -4 -38 -9 0 -14
-33 -23 -40 -11 -5 8 -9 6 -13 -4 -4 -9 -14 -16 -23 -16 -9 0 -30 -6 -47 -14
-73 -31 -89 -36 -116 -36 -16 0 -31 -6 -34 -14 -4 -9 -14 -12 -25 -9 -11 2
-23 0 -26 -6 -4 -6 -20 -11 -37 -11 -16 0 -29 -4 -29 -10 0 -5 -7 -10 -16 -10
-9 0 -22 -7 -28 -15 -6 -9 -34 -18 -63 -22 -32 -3 -59 -13 -69 -24 -11 -12
-31 -19 -54 -19 -20 0 -42 -6 -49 -13 -11 -9 -14 -9 -18 0 -3 10 -8 9 -20 -2
-8 -8 -26 -15 -40 -15 -15 0 -36 -11 -49 -26 -21 -22 -29 -24 -69 -18 -38 5
-45 4 -45 -11 0 -12 -5 -15 -20 -10 -11 3 -20 2 -20 -4 0 -8 -34 -20 -75 -27
-5 -1 -14 -3 -20 -4 -5 -1 -18 -1 -29 0 -10 1 -22 -4 -27 -11 -4 -7 -20 -14
-36 -16 -15 -2 -33 -10 -39 -18 -6 -8 -19 -12 -31 -9 -15 4 -23 0 -28 -15 -5
-16 -12 -20 -29 -15 -14 3 -27 -1 -35 -9 -6 -8 -21 -13 -31 -10 -11 3 -26 1
-33 -4 -10 -8 -39 -19 -77 -28 -3 0 -15 -6 -26 -13 -12 -6 -24 -8 -28 -5 -4 4
-13 -3 -22 -15 -8 -12 -19 -20 -24 -17 -5 3 -25 -4 -45 -15 -19 -11 -45 -20
-56 -20 -11 0 -37 -9 -59 -20 -22 -11 -50 -20 -64 -20 -13 0 -32 -8 -42 -18
-17 -17 -22 -19 -56 -21 -39 -2 -144 -131 -108 -131 7 0 9 -7 6 -16 -6 -15 -4
-15 16 -2 14 9 36 13 54 11 19 -3 50 3 79 16 37 16 46 25 41 38 -5 13 -4 15 4
7 14 -14 70 -5 70 11 0 12 42 25 82 25 11 0 26 7 34 15 19 19 87 37 108 29 11
-4 16 -2 14 7 -2 9 5 13 21 11 13 -1 47 9 77 23 29 14 60 25 69 25 11 0 15 5
12 14 -4 10 4 15 29 18 19 2 34 0 34 -4 0 -5 8 -4 17 0 10 5 42 20 72 35 39
19 58 24 72 17 9 -6 19 -6 21 -2 8 19 69 52 96 52 16 0 35 7 42 15 7 9 19 14
25 11 7 -2 16 -1 21 4 5 5 22 11 38 14 17 3 34 12 38 20 6 10 20 13 46 10 30
-3 43 0 56 15 10 11 24 17 32 14 9 -3 14 1 14 12 0 9 4 13 10 10 11 -7 89 13
105 27 5 4 19 8 32 8 13 0 23 5 23 11 0 6 7 8 16 5 8 -3 25 -1 37 5 11 7 38
13 59 15 22 1 45 7 52 14 8 6 28 12 45 13 17 1 33 7 35 13 2 6 22 14 44 17 22
4 45 14 52 22 10 12 23 15 51 10 31 -5 39 -3 52 16 14 19 19 20 32 9 10 -8 15
-9 15 -1 0 6 8 11 18 11 11 0 34 7 52 16 18 9 52 19 77 22 30 3 47 11 54 25 9
16 13 17 20 6 8 -12 11 -11 20 4 5 9 21 17 34 17 14 0 25 6 25 13 0 9 2 9 8 0
10 -15 49 -6 56 13 3 9 19 13 44 12 24 -1 46 5 60 17 16 14 35 18 80 16 43 -2
62 2 71 13 8 9 19 16 27 16 7 0 19 6 26 14 8 7 44 16 82 20 56 7 69 11 76 29
5 12 9 16 9 9 1 -16 81 -7 123 14 15 8 35 14 46 14 10 0 37 9 60 20 22 11 55
20 72 20 16 0 30 5 30 11 0 7 9 9 24 5 13 -3 26 -2 28 3 3 9 80 21 141 23 15
1 27 4 27 7 0 3 9 12 21 19 16 10 19 10 13 1 -5 -8 -2 -11 8 -6 9 3 36 11 59
17 24 7 52 16 62 21 11 6 17 6 17 -1 0 -14 16 -12 33 4 8 9 39 16 73 18 32 2
62 7 65 11 5 7 78 23 139 31 14 2 25 4 25 5 0 4 40 12 57 12 9 0 22 7 29 15
12 15 39 19 39 6 0 -15 40 -6 53 12 12 16 14 16 26 2 15 -18 45 -13 73 11 9 8
22 12 27 8 6 -3 17 -3 24 2 6 4 48 9 92 10 44 2 92 8 107 14 16 6 39 9 53 7
15 -3 25 -1 25 7 0 11 50 19 110 17 14 -1 36 3 50 8 35 12 117 23 164 21 22 0
51 6 64 15 16 10 42 15 75 13 29 -1 60 1 70 5 9 5 37 5 61 2 26 -4 47 -3 50 3
4 6 18 6 36 1 22 -6 34 -5 45 6 8 9 23 14 32 12 10 -1 23 1 30 5 6 4 14 4 17
-1 7 -11 138 5 146 18 4 7 18 5 39 -6 36 -18 81 -12 81 11 0 9 11 20 24 24 13
5 26 17 30 26 8 22 8 50 -1 42 -3 -4 -12 -2 -20 4 -9 9 -17 8 -27 0 -8 -7 -17
-8 -20 -3 -10 16 -48 18 -106 6z"/>
</g>
</svg>
